<?xml version="1.0" encoding="UTF-8"?>
<!DOCTYPE svg PUBLIC "-//W3C//DTD SVG 1.1//EN" "http://www.w3.org/Graphics/SVG/1.1/DTD/svg11.dtd">
<!-- Creator: CorelDRAW 2021 (64-Bit) -->
<svg xmlns="http://www.w3.org/2000/svg" xml:space="preserve" width="1.83571in" height="1.83571in" version="1.1" style="shape-rendering:geometricPrecision; text-rendering:geometricPrecision; image-rendering:optimizeQuality; fill-rule:evenodd; clip-rule:evenodd"
viewBox="0 0 61.7 61.7"
 xmlns:xlink="http://www.w3.org/1999/xlink"
 xmlns:xodm="http://www.corel.com/coreldraw/odm/2003">
 <defs>
  <style type="text/css">
   <![CDATA[
    .str0 {stroke:black;stroke-width:0.23;stroke-linecap:round;stroke-linejoin:round;stroke-miterlimit:2.61313}
    .fil0 {fill:black}
    .fil1 {fill:#A5B5AA}
   ]]>
  </style>
 </defs>
 <g id="Layer_x0020_1">
  <metadata id="CorelCorpID_0Corel-Layer"/>
  <rect class="fil0 str0" x="0.12" y="0.12" width="61.47" height="61.47"/>
  <path class="fil1" d="M15.17 29.67l0 12.68c0,0.21 0.03,0.36 0.11,0.52l0.02 0.04c0.05,0.11 -0.03,-0.08 0.01,0.04 0.01,0.03 0.01,0.03 0.03,0.08 0.03,0.05 0.05,0.07 0.09,0.13 0.09,0.15 0.41,0.43 0.56,0.51l0.32 0.12c0.3,0.08 0.49,0.07 0.81,0.07l6.85 0c0.13,-0.02 0.22,-0.04 0.35,-0.06 0.18,-0.03 0.31,-0.1 0.46,-0.2l0.35 -0.31c0.15,-0.15 0.27,-0.35 0.32,-0.56 0.07,-0.28 0.13,-0.39 0.1,-0.74l0.02 -0.81c0,-1 -0.02,-7.45 -0,-8.46l0.41 -1.53c0.06,-0.14 0.12,-0.33 0.21,-0.45l0.13 -0.2c0.15,-0.27 0.33,-0.54 0.56,-0.76l0.09 -0.1c0.01,-0.01 0.05,-0.05 0.05,-0.06l0.56 -0.51c0.05,-0.04 0.08,-0.07 0.13,-0.09l0.51 -0.34c0.34,-0.18 0.71,-0.33 1.07,-0.46 0.34,-0.12 1.17,-0.24 1.51,-0.24 0.37,0 0.71,0.07 1.07,0.11l1.09 0.34c0.27,0.09 0.7,0.37 0.96,0.52 0.09,0.06 0.17,0.13 0.26,0.2l0.27 0.22c0.09,0.08 0.16,0.16 0.25,0.25 0.16,0.16 0.29,0.34 0.44,0.52l0.09 0.13c0.13,0.15 0.34,0.51 0.42,0.7 0.02,0.06 0,0.03 0.04,0.1l0.2 0.51c0.04,0.12 0.03,0.06 0.07,0.18 0.08,0.24 0.21,1.02 0.21,1.24l-0 10.81 0.09 0.08 10.27 -0.02c0.01,-0.06 0.03,-0.06 0.03,-0.14l0 -11.2c0,-0.44 -0.08,-0.71 -0.08,-0.85 -0,-0.15 -0.02,-0.28 -0.03,-0.43 -0.01,-0.05 -0.01,-0.12 -0.02,-0.2 -0.01,-0.11 -0.03,-0.09 -0.05,-0.19 -0.04,-0.17 -0.05,-0.42 -0.11,-0.58 -0.03,-0.08 -0.03,-0.11 -0.04,-0.21 -0.01,-0.04 -0.02,-0.14 -0.03,-0.19 -0.05,-0.18 -0.05,-0.13 -0.1,-0.39l-0.39 -1.26c-0.04,-0.08 -0.04,-0.07 -0.06,-0.18 -0.04,-0.15 -0.02,-0.08 -0.07,-0.18 -0.03,-0.07 -0.03,-0.09 -0.06,-0.16 -0.03,-0.09 -0.05,-0.08 -0.08,-0.17 -0.02,-0.06 -0.02,-0.12 -0.05,-0.17l-0.16 -0.3c-0.04,-0.07 -0.03,-0.12 -0.07,-0.18 -0.03,-0.06 -0.05,-0.1 -0.08,-0.16l-0.12 -0.24c-0.07,-0.18 -0.49,-0.96 -0.62,-1.14l-2.37 -2.98 -1.17 -1.05c-0,-0 -0.01,-0.01 -0.02,-0.01l-0.09 -0.07c-0.07,-0.06 -0.07,-0.06 -0.14,-0.11l-0.79 -0.58c-0,-0 -0.01,-0.01 -0.02,-0.01l-0.08 -0.06c-0.04,-0.02 -0.03,-0.02 -0.07,-0.04 -0,-0 -0.01,-0.01 -0.02,-0.01 -0,-0 -0.01,-0.01 -0.02,-0.01l-0.03 -0.02c-0.04,-0.03 -0.04,-0.03 -0.09,-0.05 -0.06,-0.04 -0.02,-0.01 -0.07,-0.04l-1.91 -1.05c-0.06,-0.03 -0.12,-0.03 -0.18,-0.06 -0.08,-0.04 -0.05,-0.04 -0.14,-0.08l-1.21 -0.46c-0.15,-0.04 -0.19,-0.08 -0.36,-0.11 -0.09,-0.02 -0.11,-0.02 -0.18,-0.04l-0.76 -0.2c-0.07,-0.01 -0.11,-0.04 -0.18,-0.06 -0.16,-0.06 -0.98,-0.16 -1.17,-0.22l-1.28 -0.15c-0.31,0 -0.59,-0.03 -0.93,-0.03 -0.75,0 -3.11,-0.04 -3.68,0.02 -0.21,0.02 -0.22,-0.09 -0.6,0.08l-0.37 0.17c-0.08,0.05 -0.14,0.11 -0.21,0.17 -0.07,0.07 -0.12,0.11 -0.17,0.18 -0.24,0.32 -0.28,0.42 -0.34,0.81 -0.06,0.4 -0.02,3.01 -0.02,3.71l-0.1 0.99c-0.03,0.12 -0.06,0.17 -0.09,0.3 -0.01,0.06 -0.02,0.1 -0.03,0.16l-0.26 0.67c-0.08,0.12 -0.1,0.24 -0.19,0.36 -0.05,0.07 -0.03,0.04 -0.07,0.12l-0.41 0.6c-0.02,0.02 -0.03,0.03 -0.05,0.06l-0.55 0.57c-0.21,0.17 -0.4,0.34 -0.64,0.49 -0.06,0.04 -0.05,0.04 -0.1,0.07 -0.18,0.13 -0.55,0.32 -0.76,0.39l-0.4 0.14c-0.1,0.03 -0.06,0.03 -0.13,0.06 -0.06,0.02 -0.08,0.03 -0.15,0.04 -0.11,0.02 -0.18,0.02 -0.3,0.06 -0.23,0.08 -0.44,0.04 -0.67,0.07 -0.5,0.08 -0.57,0.05 -1.1,0.05 -0.94,0 -2.43,-0.06 -3.29,0.05 -0.13,0.02 -0.28,0.09 -0.39,0.16 -0.05,0.03 -0.07,0.04 -0.12,0.08 -0.38,0.27 -0.7,0.7 -0.7,1.19z"/>
 </g>
</svg>
